<svg width="36" height="24" viewBox="0 0 36 24" fill="none" xmlns="http://www.w3.org/2000/svg">
<path d="M14.985 8.21872C14.715 9.1283 13.32 8.61894 13.905 8.72809L5.04 6.90892C4.545 6.79977 4.275 6.39955 4.41 6.03572C4.545 5.6355 5.04 5.4172 5.49 5.52635L14.355 7.3819C14.805 7.45467 15.075 7.85488 14.985 8.21872ZM14.31 12.2209L5.445 10.3653C4.95 10.2562 4.455 10.5109 4.365 10.8747C4.23 11.2749 4.545 11.6751 4.995 11.7479L13.86 13.6035C13.275 13.4943 14.67 13.9309 14.94 13.0941C15.075 12.7303 14.805 12.33 14.31 12.2209ZM11.655 16.4777L5.445 15.1679C4.95 15.0588 4.455 15.3135 4.365 15.6773C4.23 16.0775 4.545 16.4777 4.995 16.5505L11.205 17.8603C10.62 17.7512 12.015 18.1878 12.285 17.3509C12.42 16.9871 12.15 16.5869 11.655 16.4777ZM36 0.723747V19.825C36 20.1525 35.73 20.4435 35.325 20.5163L18.225 23.9727C18.09 24.0091 17.91 24.0091 17.775 23.9727L0.675 20.5163C0.27 20.4435 0 20.1525 0 19.825V0.723747C0 0.250764 0.54 -0.11307 1.125 0.0324635L18 3.4525L34.875 0.0324635C35.46 -0.11307 36 0.250764 36 0.723747ZM17.1 4.7623L1.8 1.66971V19.2429L17.1 22.3355V4.7623ZM34.2 1.66971L18.9 4.7623V22.3355L34.2 19.2429V1.66971ZM31.59 6.03572C31.455 5.6355 30.96 5.4172 30.51 5.52635L21.645 7.3819C21.15 7.49105 20.88 7.89127 21.015 8.2551C21.285 9.16469 22.68 8.65532 22.095 8.76447L30.96 6.90892C31.455 6.79977 31.725 6.39955 31.59 6.03572ZM31.59 10.9111C31.455 10.5109 30.96 10.2926 30.51 10.4017L21.645 12.2573C21.15 12.3664 20.88 12.7666 21.015 13.1305C21.285 14.0037 22.68 13.5307 22.095 13.6398L30.96 11.7843C31.455 11.6751 31.725 11.2749 31.59 10.9111ZM28.935 16.2594C28.8 15.8592 28.305 15.6409 27.855 15.7501L21.645 17.0599C21.15 17.169 20.88 17.5692 21.015 17.9331C21.285 18.8427 22.68 18.3333 22.095 18.4424L28.305 17.169C28.8 17.0599 29.07 16.6597 28.935 16.2594Z" fill="#3A6D4A"/>
</svg>
