<svg width="40" height="40" viewBox="0 0 40 40" fill="none" xmlns="http://www.w3.org/2000/svg">
<path d="M29.375 1.25H3.125C2.62818 1.25148 2.15212 1.4495 1.80081 1.80081C1.4495 2.15212 1.25148 2.62818 1.25 3.125V29.375C1.25148 29.8718 1.4495 30.3479 1.80081 30.6992C2.15212 31.0505 2.62818 31.2485 3.125 31.25H15V30H3.125C2.95924 30 2.80027 29.9342 2.68306 29.8169C2.56585 29.6997 2.5 29.5408 2.5 29.375V7.5H30V15H31.25V3.125C31.2485 2.62818 31.0505 2.15212 30.6992 1.80081C30.3479 1.4495 29.8718 1.25148 29.375 1.25ZM30 6.25H2.5V3.125C2.5 2.95924 2.56585 2.80027 2.68306 2.68306C2.80027 2.56585 2.95924 2.5 3.125 2.5H29.375C29.5408 2.5 29.6997 2.56585 29.8169 2.68306C29.9342 2.80027 30 2.95924 30 3.125V6.25Z" fill="#3A6D4A"/>
<path d="M3.75 3.75H5V5H3.75V3.75Z" fill="#3A6D4A"/>
<path d="M6.25 3.75H7.5V5H6.25V3.75Z" fill="#3A6D4A"/>
<path d="M8.75 3.75H10V5H8.75V3.75Z" fill="#3A6D4A"/>
<path d="M27.5 21.875C26.3875 21.875 25.2999 22.2049 24.3749 22.823C23.4499 23.4411 22.7289 24.3196 22.3032 25.3474C21.8774 26.3752 21.766 27.5062 21.9831 28.5974C22.2001 29.6885 22.7359 30.6908 23.5225 31.4775C24.3092 32.2641 25.3115 32.7999 26.4026 33.0169C27.4938 33.234 28.6248 33.1226 29.6526 32.6968C30.6804 32.2711 31.5589 31.5501 32.177 30.6251C32.7951 29.7001 33.125 28.6125 33.125 27.5C33.1233 26.0087 32.5302 24.5789 31.4757 23.5244C30.4211 22.4698 28.9913 21.8767 27.5 21.875ZM27.5 31.875C26.6347 31.875 25.7888 31.6184 25.0694 31.1377C24.3499 30.6569 23.7892 29.9737 23.458 29.1742C23.1269 28.3748 23.0403 27.4951 23.2091 26.6465C23.3779 25.7978 23.7946 25.0183 24.4064 24.4064C25.0183 23.7946 25.7978 23.3779 26.6465 23.2091C27.4952 23.0403 28.3748 23.1269 29.1742 23.458C29.9737 23.7892 30.6569 24.3499 31.1377 25.0694C31.6184 25.7888 31.875 26.6347 31.875 27.5C31.8735 28.6599 31.4121 29.7718 30.592 30.5919C29.7718 31.4121 28.6599 31.8735 27.5 31.875Z" fill="#3A6D4A"/>
<path d="M38.2137 25.0062L35.7719 24.6575C35.6559 24.316 35.5187 23.982 35.3612 23.6575L36.8388 21.6875C36.9289 21.5673 36.9727 21.4186 36.9621 21.2687C36.9516 21.1187 36.8874 20.9777 36.7812 20.8713L34.1287 18.2187C34.0223 18.1126 33.8813 18.0484 33.7313 18.0379C33.5814 18.0273 33.4327 18.0711 33.3125 18.1613L31.3412 19.6388C31.0168 19.4813 30.6828 19.3441 30.3413 19.2281L29.9925 16.7862C29.9712 16.6376 29.897 16.5016 29.7836 16.4031C29.6702 16.3046 29.5252 16.2503 29.375 16.25H25.625C25.4746 16.25 25.3292 16.3042 25.2156 16.4027C25.1019 16.5012 25.0276 16.6374 25.0062 16.7862L24.6575 19.2281C24.316 19.3441 23.982 19.4813 23.6575 19.6388L21.6875 18.1613C21.5673 18.0711 21.4186 18.0273 21.2687 18.0379C21.1187 18.0484 20.9777 18.1126 20.8713 18.2187L18.2187 20.8713C18.1126 20.9777 18.0484 21.1187 18.0379 21.2687C18.0273 21.4186 18.0711 21.5673 18.1613 21.6875L19.6388 23.6588C19.4813 23.9832 19.3441 24.3172 19.2281 24.6587L16.7862 25.0075C16.6376 25.0288 16.5016 25.103 16.4031 25.2164C16.3046 25.3298 16.2503 25.4748 16.25 25.625V29.375C16.25 29.5254 16.3042 29.6708 16.4027 29.7844C16.5012 29.8981 16.6374 29.9724 16.7862 29.9938L19.2281 30.3425C19.3441 30.684 19.4813 31.018 19.6388 31.3425L18.1613 33.3125C18.0711 33.4327 18.0273 33.5814 18.0379 33.7313C18.0484 33.8813 18.1126 34.0223 18.2187 34.1287L20.8713 36.7812C20.9777 36.8874 21.1187 36.9516 21.2687 36.9621C21.4186 36.9727 21.5673 36.9289 21.6875 36.8388L23.6581 35.3612C23.9826 35.5187 24.3166 35.6559 24.6581 35.7719L25.0069 38.2137C25.0282 38.3625 25.1025 38.4986 25.216 38.5971C25.3295 38.6956 25.4747 38.7499 25.625 38.75H29.375C29.5254 38.75 29.6708 38.6958 29.7844 38.5973C29.8981 38.4988 29.9724 38.3626 29.9938 38.2137L30.3425 35.7719C30.684 35.6559 31.018 35.5187 31.3425 35.3612L33.3125 36.8388C33.4327 36.9289 33.5814 36.9727 33.7313 36.9621C33.8813 36.9516 34.0223 36.8874 34.1287 36.7812L36.7812 34.1287C36.8874 34.0223 36.9516 33.8813 36.9621 33.7313C36.9727 33.5814 36.9289 33.4327 36.8388 33.3125L35.3612 31.3419C35.5187 31.0174 35.6559 30.6834 35.7719 30.3419L38.2137 29.9931C38.3625 29.9718 38.4986 29.8975 38.5971 29.784C38.6956 29.6705 38.7499 29.5253 38.75 29.375V25.625C38.75 25.4746 38.6958 25.3292 38.5973 25.2156C38.4988 25.1019 38.3626 25.0276 38.2137 25.0062ZM37.5 28.8331L35.2063 29.16C35.0874 29.1771 34.976 29.228 34.8853 29.3067C34.7947 29.3854 34.7286 29.4885 34.695 29.6038C34.5447 30.1247 34.3378 30.6277 34.0781 31.1037C34.0204 31.2091 33.9942 31.3288 34.0027 31.4486C34.0113 31.5685 34.0541 31.6833 34.1263 31.7794L35.5137 33.63L33.6287 35.515L31.7781 34.125C31.682 34.0529 31.5672 34.01 31.4474 34.0015C31.3276 33.9929 31.2078 34.0191 31.1025 34.0769C30.6265 34.3366 30.1235 34.5434 29.6025 34.6937C29.4872 34.7273 29.3841 34.7934 29.3054 34.8841C29.2267 34.9748 29.1758 35.0862 29.1587 35.205L28.8331 37.5H26.1669L25.84 35.2063C25.8229 35.0874 25.772 34.976 25.6933 34.8853C25.6146 34.7947 25.5115 34.7286 25.3962 34.695C24.8753 34.5447 24.3723 34.3378 23.8963 34.0781C23.7909 34.0204 23.6712 33.9942 23.5514 34.0027C23.4315 34.0113 23.3167 34.0541 23.2206 34.1263L21.37 35.5137L19.485 33.6287L20.8725 31.7781C20.9446 31.682 20.9875 31.5672 20.996 31.4474C21.0046 31.3276 20.9784 31.2078 20.9206 31.1025C20.6609 30.6265 20.4541 30.1235 20.3038 29.6025C20.2702 29.4872 20.2041 29.3841 20.1134 29.3054C20.0227 29.2267 19.9113 29.1758 19.7925 29.1587L17.5 28.8331V26.1669L19.7938 25.84C19.9126 25.8229 20.024 25.772 20.1147 25.6933C20.2053 25.6146 20.2714 25.5115 20.305 25.3962C20.4552 24.8751 20.6623 24.3721 20.9225 23.8963C20.9802 23.7909 21.0062 23.6711 20.9976 23.5513C20.9889 23.4314 20.9459 23.3166 20.8737 23.2206L19.4862 21.37L21.3713 19.485L23.2219 20.8725C23.3179 20.9447 23.4327 20.9877 23.5525 20.9963C23.6723 21.005 23.7921 20.9789 23.8975 20.9212C24.3733 20.661 24.8764 20.4539 25.3975 20.3038C25.5128 20.2702 25.6159 20.2041 25.6946 20.1134C25.7733 20.0227 25.8242 19.9113 25.8413 19.7925L26.1669 17.5H28.8331L29.16 19.7938C29.1771 19.9126 29.228 20.024 29.3067 20.1147C29.3854 20.2053 29.4885 20.2714 29.6038 20.305C30.1249 20.4552 30.6279 20.6623 31.1037 20.9225C31.2091 20.9802 31.3289 21.0062 31.4487 20.9976C31.5686 20.9889 31.6834 20.9459 31.7794 20.8737L33.63 19.4862L35.515 21.3713L34.125 23.2219C34.0528 23.3179 34.0098 23.4327 34.0012 23.5525C33.9925 23.6723 34.0186 23.7921 34.0763 23.8975C34.3365 24.3733 34.5436 24.8764 34.6937 25.3975C34.7273 25.5128 34.7934 25.6159 34.8841 25.6946C34.9748 25.7733 35.0862 25.8242 35.205 25.8413L37.4988 26.1681L37.5 28.8331Z" fill="#3A6D4A"/>
<path d="M26.875 18.75H28.125V20H26.875V18.75Z" fill="#3A6D4A"/>
<path d="M20.8711 21.755L21.755 20.8711L22.6389 21.755L21.755 22.6389L20.8711 21.755Z" fill="#3A6D4A"/>
<path d="M18.75 26.875H20V28.125H18.75V26.875Z" fill="#3A6D4A"/>
<path d="M20.8711 33.2445L21.755 32.3606L22.6389 33.2445L21.755 34.1284L20.8711 33.2445Z" fill="#3A6D4A"/>
<path d="M26.875 35H28.125V36.25H26.875V35Z" fill="#3A6D4A"/>
<path d="M32.3613 33.245L33.2452 32.3611L34.1291 33.245L33.2452 34.1289L32.3613 33.245Z" fill="#3A6D4A"/>
<path d="M35 26.875H36.25V28.125H35V26.875Z" fill="#3A6D4A"/>
<path d="M32.3613 21.7555L33.2452 20.8716L34.1291 21.7555L33.2452 22.6394L32.3613 21.7555Z" fill="#3A6D4A"/>
<path d="M13.9875 18.8812L11.875 18.275V17.4812C12.2623 17.1936 12.577 16.8195 12.7941 16.3887C13.0111 15.9579 13.1244 15.4823 13.125 15V14.375H14.375V13.125H13.6938C13.6004 12.5796 13.3879 12.0617 13.0713 11.6079C12.7548 11.1542 12.342 10.7759 11.8625 10.5C11.8324 10.0264 11.6231 9.58211 11.2771 9.2574C10.9312 8.93269 10.4745 8.75195 10 8.75195C9.52551 8.75195 9.06884 8.93269 8.72285 9.2574C8.37687 9.58211 8.16756 10.0264 8.1375 10.5C7.65797 10.7759 7.24521 11.1542 6.92867 11.6079C6.61214 12.0617 6.39961 12.5796 6.30625 13.125H5.625V14.375H6.875V15C6.87558 15.4823 6.9889 15.9579 7.20594 16.3887C7.42297 16.8195 7.73769 17.1936 8.125 17.4812V18.275L6.01875 18.8812C5.3658 19.0686 4.79145 19.4632 4.38225 20.0054C3.97304 20.5476 3.75115 21.2081 3.75 21.8875V24.375C3.75 24.5407 3.81585 24.6997 3.93306 24.8169C4.05027 24.9341 4.20924 25 4.375 25H15.625C15.7908 25 15.9497 24.9341 16.0669 24.8169C16.1842 24.6997 16.25 24.5407 16.25 24.375V21.8875C16.2489 21.209 16.0278 20.5492 15.6199 20.0072C15.2119 19.4651 14.6391 19.07 13.9875 18.8812ZM11.875 12.1C12.1333 12.3939 12.3176 12.7453 12.4125 13.125H11.875V12.1ZM9.375 10.625C9.375 10.4592 9.44085 10.3002 9.55806 10.183C9.67527 10.0658 9.83424 9.99995 10 9.99995C10.1658 9.99995 10.3247 10.0658 10.4419 10.183C10.5592 10.3002 10.625 10.4592 10.625 10.625V13.125H9.375V10.625ZM11.875 14.375V15C11.875 15.4972 11.6775 15.9741 11.3258 16.3258C10.9742 16.6774 10.4973 16.875 10 16.875C9.50272 16.875 9.02581 16.6774 8.67417 16.3258C8.32254 15.9741 8.125 15.4972 8.125 15V14.375H11.875ZM11.875 19.5812V20.45L11.0125 20.2312L11.5188 19.475L11.875 19.5812ZM10.625 18.0625V18.5625L10 19.5L9.375 18.5625V18.0625C9.7875 18.1458 10.2125 18.1458 10.625 18.0625ZM7.5875 13.125C7.6824 12.7453 7.86669 12.3939 8.125 12.1V13.125H7.5875ZM8.125 19.575L8.48125 19.475L8.9875 20.2312L8.125 20.45V19.575ZM15 23.75H5V21.8875C5.00035 21.4793 5.13346 21.0824 5.37925 20.7565C5.62503 20.4307 5.97015 20.1937 6.3625 20.0812L6.875 19.9375V21.25C6.87416 21.3323 6.88976 21.4139 6.92087 21.4901C6.95199 21.5663 6.99799 21.6356 7.0562 21.6938C7.1144 21.752 7.18363 21.798 7.25984 21.8291C7.33604 21.8602 7.41769 21.8758 7.5 21.875C7.55058 21.8749 7.60096 21.8686 7.65 21.8562L10 21.2687L12.35 21.8562C12.399 21.8686 12.4494 21.8749 12.5 21.875C12.5823 21.8758 12.664 21.8602 12.7402 21.8291C12.8164 21.798 12.8856 21.752 12.9438 21.6938C13.002 21.6356 13.048 21.5663 13.0791 21.4901C13.1102 21.4139 13.1258 21.3323 13.125 21.25V19.9375L13.6438 20.0812C14.0348 20.1951 14.3783 20.4326 14.6229 20.7583C14.8674 21.084 14.9997 21.4802 15 21.8875V23.75Z" fill="#3A6D4A"/>
<path d="M16.25 10H18.75V11.25H16.25V10Z" fill="#3A6D4A"/>
<path d="M20 10H25V11.25H20V10Z" fill="#3A6D4A"/>
<path d="M18.75 12.5H21.25V13.75H18.75V12.5Z" fill="#3A6D4A"/>
<path d="M22.5 12.5H27.5V13.75H22.5V12.5Z" fill="#3A6D4A"/>
<path d="M17.5 15H18.75V16.25H17.5V15Z" fill="#3A6D4A"/>
<path d="M20 15H23.75V16.25H20V15Z" fill="#3A6D4A"/>
</svg>
