<svg width="36" height="34" viewBox="0 0 36 34" fill="none" xmlns="http://www.w3.org/2000/svg">
<g clip-path="url(#clip0_98_486)">
<path d="M7.09912 7.87846C7.31287 8.09096 7.66725 8.10158 7.89225 7.90502C8.12287 7.70314 8.13412 7.36846 7.92037 7.15596L5.32162 4.51033L5.316 4.50502C5.271 4.46783 5.22037 4.43596 5.16975 4.40939C5.1585 4.40408 5.14725 4.38814 5.136 4.38283C5.06287 4.35627 4.98975 4.34033 4.911 4.34033C4.83787 4.34033 4.75912 4.35627 4.69162 4.38283C4.68037 4.38814 4.66912 4.40408 4.65225 4.40939C4.60162 4.43596 4.551 4.46783 4.51162 4.50502C4.506 4.50502 4.506 4.51033 4.50037 4.51033L1.90162 7.15596C1.6935 7.36846 1.70475 7.70314 1.92975 7.90502C2.04225 7.99533 2.17725 8.04846 2.31225 8.04846C2.46412 8.04846 2.61037 7.99002 2.72287 7.87846L4.35412 6.22096V23.221L2.72287 21.5635C2.51475 21.3456 2.15475 21.335 1.92975 21.5369C1.70475 21.7335 1.6935 22.0681 1.90162 22.286L4.50037 24.921C4.506 24.9263 4.506 24.9263 4.51162 24.9263C4.551 24.9688 4.60162 24.9953 4.65787 25.0219C4.66912 25.0272 4.68037 25.0378 4.69162 25.0431C4.75912 25.0697 4.83787 25.0856 4.911 25.0856C4.98975 25.0856 5.0685 25.0697 5.136 25.0431C5.14725 25.0378 5.1585 25.0272 5.16975 25.0219C5.22037 24.9953 5.271 24.9688 5.316 24.9263C5.316 24.9263 5.32162 24.9263 5.32162 24.921L7.92037 22.2806C8.13412 22.0628 8.12287 21.7281 7.89225 21.5316C7.66725 21.3297 7.31287 21.3403 7.09912 21.5581L5.46787 23.2103V6.22096L7.09912 7.87846ZM33.2104 30.77C33.1822 30.7222 33.1485 30.6744 33.1091 30.6319C33.1035 30.6319 33.1035 30.6266 33.1035 30.6266L30.3022 28.1722C30.0772 27.9703 29.7172 27.981 29.5091 28.1988C29.301 28.4113 29.3122 28.746 29.5372 28.9478L31.2922 30.4885H13.2922L15.0472 28.9478C15.2722 28.746 15.2891 28.4113 15.0754 28.1988C14.8672 27.981 14.5072 27.9703 14.2822 28.1722L11.481 30.6266C11.481 30.6266 11.481 30.6319 11.4754 30.6319C11.436 30.6691 11.4079 30.7169 11.3797 30.77C11.3685 30.786 11.3572 30.7913 11.3516 30.8072C11.3235 30.8656 11.3066 30.94 11.3066 31.0144C11.3066 31.0888 11.3235 31.1578 11.3516 31.2216C11.3572 31.2322 11.3685 31.2428 11.3797 31.2535C11.4022 31.3066 11.436 31.3491 11.4754 31.3969C11.481 31.3969 11.481 31.3969 11.481 31.4022L14.2822 33.8566C14.3947 33.9469 14.5241 34 14.6647 34C14.8166 34 14.9629 33.9469 15.0754 33.83C15.2891 33.6175 15.2722 33.2775 15.0472 33.081L13.2922 31.5403H31.2922L29.5372 33.081C29.3122 33.2775 29.301 33.6175 29.5091 33.83C29.6216 33.9469 29.7679 34 29.9197 34C30.0604 34 30.1954 33.9522 30.3022 33.8566L33.1035 31.4022C33.1035 31.3969 33.1035 31.3969 33.1091 31.3969C33.1485 31.3544 33.1822 31.3119 33.2104 31.2535C33.216 31.2428 33.2273 31.2322 33.2329 31.2216C33.261 31.1578 33.2779 31.0888 33.2779 31.0144C33.2779 30.94 33.261 30.8656 33.2329 30.8072C33.2273 30.7913 33.216 30.786 33.2104 30.77ZM19.0579 24.4481V16.6653H13.7422V24.4481H19.0579ZM14.6647 17.9828C14.6647 17.7597 14.856 17.5791 15.0922 17.5791H17.7079C17.9385 17.5791 18.1297 17.7597 18.1297 17.9828V20.4478C18.1297 20.671 17.9385 20.8516 17.7079 20.8516H15.0922C14.8616 20.8516 14.6647 20.6656 14.6647 20.4478V17.9828Z" fill="#3A6D4A"/>
<path d="M29.874 2.68286L28.3496 3.37349V4.91411L29.874 6.30599V2.68286Z" fill="#3A6D4A"/>
<path d="M32.2761 24.4481V13.1537L32.1861 13.09C32.1523 13.0634 32.1129 13.0368 32.0792 13.0103L21.4648 3.37341L10.8617 13.005C10.8279 13.0368 10.7886 13.0634 10.7042 13.1219L10.6592 13.1537V24.4481H12.8473V16.2456C12.8473 16.0119 13.0442 15.8259 13.2917 15.8259H19.4961C19.7436 15.8259 19.9404 16.0119 19.9404 16.2456V24.4481H32.2761ZM29.1204 14.7209V20.0228C29.1204 20.2193 28.9573 20.3734 28.7492 20.3734H23.1354C22.9329 20.3734 22.7642 20.214 22.7642 20.0228V14.7209C22.7642 14.5297 22.9329 14.3703 23.1354 14.3703H28.7492C28.9573 14.3703 29.1204 14.5297 29.1204 14.7209ZM19.1529 9.39248C19.1529 8.18654 20.1879 7.20904 21.4648 7.20904C22.7417 7.20904 23.7823 8.18654 23.7823 9.39248C23.7823 10.5931 22.7417 11.5759 21.4648 11.5759C20.1936 11.5759 19.1529 10.5984 19.1529 9.39248Z" fill="#3A6D4A"/>
<path d="M33.6989 25.1759H9.23582C8.93207 25.1759 8.68457 25.4097 8.68457 25.6966C8.68457 25.9834 8.93207 26.2172 9.23582 26.2172H33.6989C34.0027 26.2172 34.2502 25.9834 34.2502 25.6966C34.2502 25.4097 34.0027 25.1759 33.6989 25.1759ZM9.64082 12.6278C9.87145 12.6278 10.0852 12.5481 10.2427 12.3994L21.1552 2.48625C21.2396 2.41188 21.3521 2.36937 21.4646 2.36937C21.5771 2.36937 21.6896 2.41188 21.7739 2.48625L32.6921 12.4047C32.8496 12.5534 33.0633 12.6331 33.2939 12.6331C33.5246 12.6278 33.7327 12.5375 33.8902 12.3888C34.0477 12.2347 34.1321 12.0381 34.1321 11.815C34.1264 11.6078 34.0308 11.4059 33.8733 11.2519L30.1214 7.84656L27.4664 5.42938L21.4871 0L9.06145 11.2466C8.89832 11.3953 8.80832 11.5972 8.8027 11.8044C8.79707 12.0169 8.88145 12.2188 9.04457 12.3781C9.19645 12.5375 9.4102 12.6225 9.64082 12.6278Z" fill="#3A6D4A"/>
</g>
<defs>
<clipPath id="clip0_98_486">
<rect width="36" height="34" fill="white"/>
</clipPath>
</defs>
</svg>
