<svg width="35" height="30" viewBox="0 0 35 30" fill="none" xmlns="http://www.w3.org/2000/svg">
<g opacity="0.3">
<path d="M7.65625 10.1309C7.65625 5.57227 12.1748 1.875 17.5 1.875C22.8252 1.875 27.3438 5.57227 27.3438 10.1367C27.3438 11.9531 26.4414 13.5938 25.2793 15H25.2998C24.5547 15.8789 23.8369 16.623 23.1465 17.6367C21.6426 19.8516 21.875 21.9902 21.8682 22.418V22.5H13.1182V22.418C13.1182 21.8965 13.3643 19.8516 11.8604 17.6367C11.1699 16.623 10.4521 15.8789 9.70703 15H9.71387C8.55859 13.5938 7.65625 11.9531 7.65625 10.1309ZM11.0059 14.9062C11.0469 14.9531 11.0811 14.9941 11.1221 15.041C11.6758 15.6797 12.25 16.3418 12.8105 17.1562C13.9932 18.8965 14.2051 20.5488 14.2324 21.5566H15.3125V15L13.125 11.25H14.2598L16.4062 15V21.5625H18.5938V15L20.7402 11.25H21.875L19.6875 15V21.5625H20.7744C20.8086 20.5547 21.041 18.8848 22.2031 17.168C22.5107 16.7168 22.8252 16.2891 23.1396 15.9375H23.126L24.3975 14.4375C25.4775 13.1719 26.25 11.6777 26.25 10.125C26.25 8.16797 25.1562 6.32812 23.543 4.94531C21.9297 3.5625 19.7832 2.79492 17.5 2.79492C15.2168 2.79492 13.0703 3.5625 11.457 4.94531C9.84375 6.32812 8.75 8.16797 8.75 10.125C8.75 11.6777 9.52246 13.166 10.6025 14.4316L11.0059 14.9062Z" fill="#3A6D4A"/>
<path d="M19.6875 27.1875H15.3125V28.125H19.6875V27.1875Z" fill="#3A6D4A"/>
<path d="M20.7812 25.3125H14.2188V26.25H20.7812V25.3125Z" fill="#3A6D4A"/>
<path d="M20.7812 23.4375H14.2188V24.375H20.7812V23.4375Z" fill="#3A6D4A"/>
</g>
</svg>
