<svg width="52" height="32" viewBox="0 0 52 32" fill="none" xmlns="http://www.w3.org/2000/svg">
<path d="M49.2954 9.22878C50.4096 7.66823 51.562 6.05446 51.4975 4.70583C51.455 3.81667 50.4331 1.59938 49.2309 1.54713C47.4121 1.47047 45.7226 3.55348 43.9404 5.76247C42.3696 7.70827 40.7314 9.72247 39.4179 9.59747C39.0307 9.56182 38.4829 8.64288 38.0835 7.97147C37.7681 7.32805 37.3279 6.75376 36.7885 6.28202C35.7137 5.66585 34.5253 5.27338 33.2949 5.12821C33.2756 4.91103 33.2754 4.69258 33.2944 4.47538C33.3276 3.86503 33.3833 2.84354 32.4658 2.71415C31.6123 2.59354 28.1059 2.45585 24.0459 2.29615C19.5508 2.1189 14.4555 1.91871 13.0556 1.72974C10.1316 1.36912 7.23133 0.837282 4.36963 0.13697C4.26878 0.105936 4.16261 0.0960328 4.05776 0.107879C3.95291 0.119725 3.85163 0.153066 3.76025 0.20582C3.29736 0.46949 3.09717 1.16187 2.86474 2.11109C2.81809 2.32903 2.75875 2.54407 2.68701 2.75509C2.27832 3.77709 1.59472 5.74337 1.32715 6.74728L1.23291 7.09542C0.820584 8.36676 0.576164 9.68653 0.505859 11.0212C0.637199 13.1262 2.26269 16.9665 2.87793 18.2688C3.47979 19.675 4.31036 20.9718 5.33593 22.1067C5.81158 22.4206 6.33762 22.6505 6.89111 22.7863C7.15675 22.8622 7.41723 22.9552 7.6709 23.0647C8.04638 23.2492 8.61035 23.6003 9.15625 23.9397C9.74218 24.3044 10.2954 24.6487 10.7109 24.8532L11.167 25.0788C13.2637 26.1179 16.7725 27.8571 18.8281 28.1203C19.2063 28.1338 19.5839 28.0826 19.9448 27.969C20.2228 27.881 20.5126 27.8359 20.8042 27.8352C21.3096 27.9865 22 28.8591 22.6089 29.6286C23.4927 30.7453 24.4038 31.8972 25.4307 31.8967C25.5193 31.8969 25.6078 31.8884 25.6948 31.8713C26.5664 31.7014 26.8769 30.6032 27.1768 29.5412C27.2762 28.9698 27.5021 28.4277 27.8379 27.9548C28.7571 27.6737 29.7293 27.6117 30.6768 27.7737C31.4324 27.8643 32.1966 27.8581 32.9507 27.7551C33.8109 27.4813 34.6299 27.0918 35.3853 26.5974C36.5298 25.9353 37.9531 25.111 38.6919 25.3308C39.3101 25.5154 39.9121 27.0066 40.3965 28.2043C41.1094 29.9699 41.8438 31.801 43.2285 31.5124C44.3227 31.2883 44.2841 29.4504 44.2583 28.2341L44.2539 27.9773C44.1628 27.1061 43.946 26.2526 43.6103 25.4436C43.1946 24.5383 42.982 23.553 42.9873 22.5569C43.1802 21.7741 44.2886 20.7483 45.2661 19.843C46.1631 19.1278 46.9259 18.259 47.5191 17.2771C47.7852 16.2956 47.8161 15.2651 47.6094 14.2693C47.4907 13.581 47.47 12.8794 47.5479 12.1853C47.9775 11.1171 48.5667 10.1202 49.2954 9.22878ZM26.4631 3.39241C29.3171 3.50636 31.6846 3.60664 32.2695 3.66286C32.3192 3.91255 32.3281 4.16863 32.2959 4.42116C32.1954 4.91115 32.2898 5.421 32.5591 5.84254C32.638 5.92869 32.7335 5.99798 32.8399 6.04624C32.9463 6.09449 33.0614 6.12071 33.1782 6.12331C34.2506 6.24968 35.2877 6.58564 36.2304 7.11208C36.6336 7.51238 36.9692 7.97542 37.2241 8.48317C37.4167 8.80653 37.6127 9.13039 37.8184 9.42738L37.3945 13.8848L25.7958 12.4691L26.4631 3.39241ZM16.2567 2.9623C18.4152 3.07484 21.2359 3.18611 24.0068 3.29518C24.4977 3.31453 24.985 3.33376 25.4635 3.35268L25.1287 7.90695L15.7261 6.17775L16.2567 2.9623ZM2.19769 7.35768L2.29291 7.00514C2.54779 6.05006 3.22503 4.1028 3.61566 3.12672C3.70455 2.87208 3.77808 2.61234 3.83587 2.34889C3.92173 1.93233 4.04984 1.52561 4.2182 1.13503C7.08757 1.82554 9.99332 2.35501 12.9218 2.72095C13.3845 2.78321 14.2025 2.84528 15.2526 2.90705L13.8445 11.4405L1.79062 8.9438C1.92398 8.36983 2.07757 7.7997 2.19769 7.35768ZM11.6108 24.1829L11.1533 23.9568C10.7817 23.7732 10.2241 23.4265 9.68451 23.0906C9.11761 22.7381 8.53168 22.3733 8.11127 22.1673C7.81348 22.0354 7.50712 21.9238 7.19427 21.8333C6.76676 21.7249 6.3563 21.558 5.97455 21.3372C5.05905 20.2983 4.31859 19.1176 3.78216 17.8411C2.95843 16.0984 1.61175 12.6887 1.50384 10.9587C1.49707 10.6118 1.52671 10.265 1.59228 9.92425L13.6815 12.4283L11.732 24.2428L11.6108 24.1829ZM23.5619 29.2207C23.5052 29.1494 23.4479 29.0775 23.393 29.0081C22.833 28.1027 22.0378 27.3663 21.0922 26.8772C20.9712 26.8429 20.8459 26.8263 20.7201 26.8279C20.3772 26.8455 20.0374 26.9026 19.7075 26.9978C19.4633 27.0734 19.2104 27.1172 18.955 27.1282C16.7655 26.5894 14.6533 25.7745 12.6693 24.7032L13.8888 17.3119L24.2115 20.3831L23.5619 29.2207ZM14.0529 16.3178L15.5633 7.16444L25.055 8.90995L24.2866 19.3625L14.0529 16.3178ZM36.3439 24.9308C35.8618 25.1709 35.371 25.4506 34.8852 25.7312C34.2145 26.1674 33.4926 26.5191 32.7358 26.7785C32.0738 26.853 31.4055 26.8522 30.7436 26.7761C29.4399 26.6897 28.0927 26.5993 27.2949 27.115C26.7061 27.6936 26.3261 28.4513 26.2143 29.2693C26.0595 29.8176 25.7714 30.8376 25.5034 30.8899C25.2242 30.9401 24.8638 30.6798 24.4853 30.2967L24.9802 23.5643L36.3898 24.4487L36.3439 24.9308ZM36.4845 23.453L25.0534 22.567L25.7224 13.4671L37.2998 14.8801L36.4845 23.453ZM44.5869 19.1091C43.4531 20.1584 42.2807 21.2439 42.0166 22.3176C41.9374 23.5052 42.1607 24.6934 42.6655 25.7712C42.9574 26.481 43.1552 27.2259 43.2539 27.987L43.2588 28.2551C43.2944 29.9534 43.1391 30.4368 43.0273 30.5329C42.4672 30.6438 41.8042 29.0202 41.3232 27.8298C40.6723 26.2175 40.0571 24.6951 38.978 24.3728C38.4487 24.2512 37.895 24.2927 37.3898 24.4918L38.0329 17.7294L45.0227 18.7018C44.8778 18.8378 44.7331 18.9738 44.5869 19.1091ZM46.6152 14.3781C46.7797 15.1995 46.777 16.0456 46.6074 16.8659C46.4226 17.2152 46.1872 17.5353 45.9088 17.8157L38.1277 16.7332L38.7317 10.3831C38.9104 10.4986 39.1137 10.5706 39.3252 10.5935C40.6466 10.7115 41.903 9.66059 43.1735 8.23609L47.056 10.8257C46.852 11.1767 46.6915 11.5513 46.5781 11.9411C46.4607 12.7503 46.4732 13.5729 46.6152 14.3781ZM43.8315 7.47303C44.1256 7.12031 44.4213 6.75941 44.7187 6.39033C46.267 4.47187 47.8847 2.47533 49.1875 2.54609C49.5942 2.56367 50.4638 4.02851 50.4985 4.75361C50.5463 5.75561 49.4496 7.29218 48.4818 8.64761C48.1585 9.10037 47.8532 9.53891 47.5714 9.9675L43.8315 7.47303Z" fill="#3A6D4A"/>
</svg>
