<svg width="26" height="29" viewBox="0 0 26 29" fill="none" xmlns="http://www.w3.org/2000/svg">
<path d="M5.78516 18.55H2.55078C2.33633 18.55 2.13066 18.6501 1.97902 18.8282C1.82738 19.0064 1.74219 19.248 1.74219 19.5V34.7C1.74219 34.952 1.82738 35.1936 1.97902 35.3718C2.13066 35.5499 2.33633 35.65 2.55078 35.65H5.78516C5.99961 35.65 6.20528 35.5499 6.35692 35.3718C6.50856 35.1936 6.59375 34.952 6.59375 34.7V19.5C6.59375 19.248 6.50856 19.0064 6.35692 18.8282C6.20528 18.6501 5.99961 18.55 5.78516 18.55ZM4.97656 33.75H3.35938V20.45H4.97656V33.75Z" fill="white"/>
<path opacity="0.5" d="M4.97656 20.45H3.35938V33.75H4.97656V20.45Z" fill="white"/>
<path d="M10.6367 2.4H2.55078C2.33633 2.4 2.13066 2.29991 1.97902 2.12175C1.82738 1.94359 1.74219 1.70196 1.74219 1.45C1.74219 1.19804 1.82738 0.956408 1.97902 0.778249C2.13066 0.600089 2.33633 0.5 2.55078 0.5H10.6367C10.8512 0.5 11.0568 0.600089 11.2085 0.778249C11.3601 0.956408 11.4453 1.19804 11.4453 1.45C11.4453 1.70196 11.3601 1.94359 11.2085 2.12175C11.0568 2.29991 10.8512 2.4 10.6367 2.4Z" fill="white"/>
<path d="M4.16797 20.45C3.95352 20.45 3.74785 20.3499 3.59621 20.1718C3.44457 19.9936 3.35938 19.752 3.35938 19.5V1.45C3.35938 1.19804 3.44457 0.956408 3.59621 0.778249C3.74785 0.600089 3.95352 0.5 4.16797 0.5C4.38242 0.5 4.58809 0.600089 4.73973 0.778249C4.89137 0.956408 4.97656 1.19804 4.97656 1.45V19.5C4.97656 19.752 4.89137 19.9936 4.73973 20.1718C4.58809 20.3499 4.38242 20.45 4.16797 20.45ZM25.1914 33.75H0.933594C0.719141 33.75 0.513473 33.8501 0.361832 34.0282C0.210191 34.2064 0.125 34.448 0.125 34.7V37.55C0.125 37.802 0.210191 38.0436 0.361832 38.2218C0.513473 38.3999 0.719141 38.5 0.933594 38.5H25.1914C25.4059 38.5 25.6115 38.3999 25.7632 38.2218C25.9148 38.0436 26 37.802 26 37.55V34.7C26 34.448 25.9148 34.2064 25.7632 34.0282C25.6115 33.8501 25.4059 33.75 25.1914 33.75ZM24.3828 36.6H1.74219V35.65H24.3828V36.6Z" fill="white"/>
<path d="M17.1055 2.4C16.3058 2.4 15.5242 2.67858 14.8593 3.20052C14.1945 3.72246 13.6763 4.46431 13.3703 5.33226C13.0643 6.2002 12.9842 7.15527 13.1402 8.07668C13.2962 8.99809 13.6812 9.84446 14.2467 10.5088C14.8121 11.1731 15.5325 11.6255 16.3167 11.8087C17.101 11.992 17.9139 11.8979 18.6526 11.5384C19.3914 11.1789 20.0228 10.5701 20.4671 9.78896C20.9113 9.00783 21.1484 8.08946 21.1484 7.15C21.1484 5.89022 20.7225 4.68204 19.9643 3.79124C19.2061 2.90045 18.1777 2.4 17.1055 2.4ZM17.1055 10C16.6257 10 16.1567 9.83285 15.7578 9.51969C15.3589 9.20653 15.0479 8.76142 14.8643 8.24065C14.6807 7.71988 14.6327 7.14684 14.7263 6.59399C14.8199 6.04115 15.0509 5.53333 15.3902 5.13475C15.7294 4.73617 16.1617 4.46473 16.6322 4.35476C17.1028 4.2448 17.5905 4.30123 18.0338 4.51694C18.477 4.73265 18.8559 5.09795 19.1224 5.56663C19.389 6.03531 19.5313 6.58632 19.5313 7.15C19.5313 7.90587 19.2757 8.63078 18.8208 9.16526C18.3658 9.69973 17.7488 10 17.1055 10Z" fill="white"/>
<path opacity="0.5" d="M19.5312 7.15C19.5312 7.90587 19.2757 8.63078 18.8208 9.16526C18.3658 9.69974 17.7488 10 17.1055 10C16.8293 10.0021 16.5551 9.94409 16.2969 9.829C16.7652 9.62931 17.1698 9.26506 17.4557 8.78575C17.7417 8.30644 17.895 7.73532 17.895 7.15C17.895 6.56469 17.7417 5.99357 17.4557 5.51426C17.1698 5.03495 16.7652 4.6707 16.2969 4.471C16.5551 4.35592 16.8293 4.29794 17.1055 4.3C17.7488 4.3 18.3658 4.60027 18.8208 5.13475C19.2757 5.66923 19.5312 6.39414 19.5312 7.15Z" fill="white"/>
<path d="M22.7656 26.15C22.5512 26.15 22.3455 26.0499 22.1939 25.8718C22.0422 25.6936 21.957 25.452 21.957 25.2V19.5C21.957 17.9883 21.4459 16.5384 20.536 15.4695C19.6262 14.4005 18.3922 13.8 17.1055 13.8C15.8188 13.8 14.5847 14.4005 13.6749 15.4695C12.7651 16.5384 12.2539 17.9883 12.2539 19.5V25.2C12.2539 25.452 12.1687 25.6936 12.0171 25.8718C11.8654 26.0499 11.6598 26.15 11.4453 26.15C11.2309 26.15 11.0252 26.0499 10.8735 25.8718C10.7219 25.6936 10.6367 25.452 10.6367 25.2V19.5C10.6367 17.4844 11.3182 15.5513 12.5314 14.126C13.7445 12.7007 15.3898 11.9 17.1055 11.9C18.8211 11.9 20.4664 12.7007 21.6796 14.126C22.8927 15.5513 23.5742 17.4844 23.5742 19.5V25.2C23.5742 25.452 23.489 25.6936 23.3374 25.8718C23.1857 26.0499 22.9801 26.15 22.7656 26.15Z" fill="white"/>
<path d="M13.8711 35.65C13.6566 35.65 13.451 35.5499 13.2993 35.3718C13.1477 35.1936 13.0625 34.952 13.0625 34.7V24.25C13.0625 23.998 13.1477 23.7564 13.2993 23.5783C13.451 23.4001 13.6566 23.3 13.8711 23.3C14.0855 23.3 14.2912 23.4001 14.4429 23.5783C14.5945 23.7564 14.6797 23.998 14.6797 24.25V34.7C14.6797 34.952 14.5945 35.1936 14.4429 35.3718C14.2912 35.5499 14.0855 35.65 13.8711 35.65ZM20.3398 35.65C20.1254 35.65 19.9197 35.5499 19.7681 35.3718C19.6164 35.1936 19.5312 34.952 19.5312 34.7V24.25C19.5312 23.998 19.6164 23.7564 19.7681 23.5783C19.9197 23.4001 20.1254 23.3 20.3398 23.3C20.5543 23.3 20.76 23.4001 20.9116 23.5783C21.0632 23.7564 21.1484 23.998 21.1484 24.25V34.7C21.1484 34.952 21.0632 35.1936 20.9116 35.3718C20.76 35.5499 20.5543 35.65 20.3398 35.65Z" fill="white"/>
<path d="M17.1055 11.9C16.0332 11.9 15.0049 12.4004 14.2467 13.2912C13.4885 14.182 13.0625 15.3902 13.0625 16.65V25.2C13.0625 25.452 13.1477 25.6936 13.2993 25.8718C13.451 26.0499 13.6566 26.15 13.8711 26.15H20.3398C20.5543 26.15 20.76 26.0499 20.9116 25.8718C21.0632 25.6936 21.1484 25.452 21.1484 25.2V16.65C21.1484 15.3902 20.7225 14.182 19.9643 13.2912C19.2061 12.4004 18.1777 11.9 17.1055 11.9ZM19.5312 24.25H14.6797V16.65C14.6797 15.8941 14.9353 15.1692 15.3902 14.6347C15.8451 14.1003 16.4621 13.8 17.1055 13.8C17.7488 13.8 18.3658 14.1003 18.8208 14.6347C19.2757 15.1692 19.5312 15.8941 19.5312 16.65V24.25Z" fill="white"/>
<path opacity="0.5" d="M19.5312 16.65V24.25H17.9141V16.65C17.9127 16.062 17.7565 15.4889 17.467 15.0093C17.1774 14.5297 16.7687 14.167 16.2969 13.971C16.5551 13.8559 16.8293 13.7979 17.1055 13.8C17.7488 13.8 18.3658 14.1003 18.8208 14.6347C19.2757 15.1692 19.5312 15.8941 19.5312 16.65Z" fill="white"/>
<path d="M17.9141 23.3H13.8711C13.6566 23.3 13.451 23.1999 13.2993 23.0218C13.1477 22.8436 13.0625 22.602 13.0625 22.35C13.0625 22.098 13.1477 21.8564 13.2993 21.6782C13.451 21.5001 13.6566 21.4 13.8711 21.4H17.9141C18.1285 21.4 18.3342 21.5001 18.4858 21.6782C18.6375 21.8564 18.7227 22.098 18.7227 22.35C18.7227 22.602 18.6375 22.8436 18.4858 23.0218C18.3342 23.1999 18.1285 23.3 17.9141 23.3Z" fill="white"/>
</svg>

