<svg width="21" height="32" viewBox="0 0 21 32" fill="none" xmlns="http://www.w3.org/2000/svg">
<path d="M3 12H17.985H3ZM2.97803 25H17.963H2.97803ZM6.57495 1C6.57495 1 5.93791 2.43599 4.61292 3.16699C3.31992 3.87999 1 3.73801 1 5.33301V7.01599H20V5.33301C20 3.90101 17.5469 3.81099 16.3879 3.16699C14.9329 2.35799 14.426 1 14.426 1H6.57495Z" fill="white"/>
<path d="M3 12H17.985M2.97803 25H17.963M6.57495 1C6.57495 1 5.93792 2.43599 4.61292 3.16699C3.31992 3.87999 1 3.73801 1 5.33301V7.01599H20V5.33301C20 3.90101 17.5469 3.81099 16.3879 3.16699C14.9329 2.35799 14.426 1 14.426 1H6.57495Z" stroke="#373449" stroke-linecap="round" stroke-linejoin="round"/>
<path d="M9.10986 1V31H9.96082V1H9.10986Z" fill="white"/>
<path d="M9.01611 1H12.014V31H9.01611V1Z" fill="white" stroke="#373449" stroke-linecap="round" stroke-linejoin="round"/>
<path d="M10.499 3.487C10.7752 3.487 10.999 3.26314 10.999 2.987C10.999 2.71086 10.7752 2.487 10.499 2.487C10.2229 2.487 9.99902 2.71086 9.99902 2.987C9.99902 3.26314 10.2229 3.487 10.499 3.487Z" fill="white"/>
<path d="M10.499 5.50403C10.7752 5.50403 10.999 5.28017 10.999 5.00403C10.999 4.72789 10.7752 4.50403 10.499 4.50403C10.2229 4.50403 9.99902 4.72789 9.99902 5.00403C9.99902 5.28017 10.2229 5.50403 10.499 5.50403Z" fill="white"/>
<path d="M2.50098 13H3.50098V14H2.50098V13ZM2.50098 15H3.50098V16H2.50098V15ZM2.50098 17H3.50098V18H2.50098V17ZM2.50098 19H3.50098V20H2.50098V19ZM2.50098 21H3.50098V22H2.50098V21ZM2.50098 23H3.50098V24H2.50098V23ZM17.501 13H18.501V14H17.501V13ZM17.501 15H18.501V16H17.501V15ZM17.501 17H18.501V18H17.501V17ZM17.501 19H18.501V20H17.501V19ZM17.501 21H18.501V22H17.501V21ZM17.501 23H18.501V24H17.501V23Z" fill="white"/>
</svg>
