<svg width="24" height="30" viewBox="0 0 24 30" fill="none" xmlns="http://www.w3.org/2000/svg">
<path fill-rule="evenodd" clip-rule="evenodd" d="M3.96344 6.17292C4.4312 5.28681 4.97757 4.47114 5.59251 3.74243C5.89398 3.38525 6.34092 3.31231 6.70313 3.56166L8.51807 4.80963C9.0713 4.36392 9.66322 4.00113 10.2821 3.72872L10.6467 1.14457C10.7197 0.628739 11.043 0.229475 11.4502 0.152178C12.5207 -0.0507261 13.609 -0.0507261 14.6795 0.152178C15.0868 0.229475 15.41 0.628739 15.483 1.14457L15.8477 3.72872C16.4665 4.00113 17.0584 4.36392 17.6117 4.80963L19.4266 3.56166C19.7888 3.31231 20.2358 3.38525 20.5372 3.74243C21.3292 4.68122 22.0076 5.764 22.5505 6.95555C22.757 7.40905 22.7134 7.97974 22.4418 8.3737L21.0819 10.3479C21.3003 11.1336 21.4465 11.9487 21.5176 12.7771L23.4158 13.8047C23.7949 14.0098 24.0287 14.5001 23.9972 15.0225C23.9144 16.3961 23.6722 17.7463 23.2786 19.0291C23.129 19.5175 22.7511 19.8298 22.3397 19.8055L20.2791 19.683C19.9326 20.3903 19.5231 21.0438 19.0583 21.6311L19.6105 24.1607C19.721 24.6659 19.5657 25.2042 19.2251 25.4987C19.2099 25.5118 19.1944 25.5249 19.1793 25.538L21.0466 27.9145C21.3211 28.2639 21.4032 28.7894 21.2548 29.246C21.1061 29.7023 20.7562 30 20.3678 30H0.960004C0.429798 30 0 29.453 0 28.7782V4.07811C0 3.5841 0.233878 3.13871 0.592655 2.94952C0.951432 2.76033 1.36433 2.86474 1.63886 3.21444L3.96344 6.17292ZM0.960004 10.4588H1.86368C2.12866 10.4588 2.34368 10.7325 2.34368 11.0697C2.34368 11.407 2.12866 11.6806 1.86368 11.6806H0.960004V16.1074H1.86368C2.12866 16.1074 2.34368 16.3811 2.34368 16.7183C2.34368 17.0556 2.12866 17.3292 1.86368 17.3292H0.960004V21.756H1.86368C2.12866 21.756 2.34368 22.03 2.34368 22.3669C2.34368 22.7042 2.12866 22.9778 1.86368 22.9778H0.960004V28.7782H5.53839V27.6281C5.53839 27.2909 5.75366 27.0172 6.01839 27.0172C6.28337 27.0172 6.49839 27.2909 6.49839 27.6281V28.7782H9.97694V27.6281C9.97694 27.2909 10.192 27.0172 10.4569 27.0172C10.7217 27.0172 10.9369 27.2909 10.9369 27.6281V28.7782H14.4152V27.6281C14.4152 27.2909 14.6303 27.0172 14.8952 27.0172C15.1602 27.0172 15.3752 27.2909 15.3752 27.6281V28.7782H20.3678L0.960004 4.07811V10.4588ZM5.6148 14.7887C5.34027 14.4393 4.92737 14.3349 4.56859 14.5241C4.20981 14.713 3.97593 15.1587 3.97593 15.6527V23.7181C3.97593 24.3929 4.40573 24.9399 4.93594 24.9399H11.2732C11.6616 24.9399 12.0116 24.6422 12.1602 24.1856C12.3089 23.729 12.2266 23.2035 11.952 22.8541L5.6148 14.7887ZM18.4862 24.6559C18.5533 24.6008 18.6197 24.545 18.6855 24.4879L17.9768 21.2408C18.6983 20.4529 19.2963 19.4985 19.7393 18.4279L22.3845 18.585C22.7435 17.4143 22.9644 16.1822 23.0401 14.929L20.6033 13.6099C20.5693 12.4006 20.3558 11.2106 19.9744 10.1023L21.7201 7.56832C21.2247 6.48086 20.6056 5.49314 19.8829 4.63664L17.5534 6.23869C16.7893 5.5187 15.925 4.98916 15.0064 4.67748L14.5379 1.36057C13.5613 1.17574 12.5685 1.17574 11.5916 1.36057L11.1233 4.67748C10.2047 4.98916 9.34044 5.5187 8.57636 6.23869L6.24688 4.63664C5.63953 5.35632 5.10541 6.16856 4.65651 7.05498L9.0211 12.6098C9.5082 10.3501 11.1351 8.68725 13.0649 8.68725C15.3789 8.68725 17.2575 11.0782 17.2575 14.0229C17.2575 16.479 15.951 18.5495 14.1752 19.1694L18.4862 24.6559ZM4.93594 15.6527V23.7181H11.2732L4.93594 15.6527ZM13.3516 18.1212C15.0018 17.9361 16.2975 16.1707 16.2975 14.0229C16.2975 11.7523 14.849 9.90904 13.0649 9.90904C11.3775 9.90904 9.99016 11.5581 9.84494 13.6579L13.3516 18.1212Z" fill="white"/>
</svg>
